<svg width="312" height="113" viewBox="0 0 312 113" fill="none" xmlns="http://www.w3.org/2000/svg">
<path d="M0 5C0 2.23858 2.23858 0 5 0H307C309.761 0 312 2.23858 312 5V108C312 110.761 309.761 113 307 113H5.00001C2.23858 113 0 110.761 0 108V5Z" fill="black"/>
<path d="M91.9141 33.2422C91.4714 33.2422 89.7656 33.2292 86.7969 33.2031C83.8281 33.151 80.1823 33.125 75.8594 33.125C73.9062 33.125 72.1094 33.138 70.4688 33.1641C68.8542 33.1641 67.474 33.1641 66.3281 33.1641C66.3281 36.1068 66.3021 39.2969 66.25 42.7344C66.1979 46.1719 66.1719 49.1927 66.1719 51.7969C66.4844 51.7969 67.3828 51.8099 68.8672 51.8359C70.3516 51.8359 71.7708 51.8359 73.125 51.8359C77.3958 51.8359 81.4193 51.8229 85.1953 51.7969C88.9974 51.7448 91.1068 51.7188 91.5234 51.7188V57.1094C91.0286 57.1094 88.6198 57.0964 84.2969 57.0703C80 57.0182 76.1458 56.9922 72.7344 56.9922C71.6667 56.9922 70.3906 57.0052 68.9062 57.0312C67.4219 57.0312 66.5104 57.0312 66.1719 57.0312C66.1719 61.6406 66.1849 66.0026 66.2109 70.1172C66.263 74.2057 66.3021 77.5 66.3281 80H59.8828C59.9349 78.4375 59.974 75.6641 60 71.6797C60.0521 67.6693 60.0781 61.9141 60.0781 54.4141C60.0781 51.4714 60.0651 47.5911 60.0391 42.7734C60.013 37.9557 59.9609 32.9688 59.8828 27.8125C61.7839 27.8125 64.1016 27.8255 66.8359 27.8516C69.5964 27.8776 72.5 27.8906 75.5469 27.8906C80.1042 27.8906 83.8672 27.8776 86.8359 27.8516C89.8047 27.8255 91.4974 27.8125 91.9141 27.8125V33.2422ZM128.406 45.0781C126.974 45.4167 124.773 46.1328 121.805 47.2266C118.862 48.3203 115.464 49.7786 111.609 51.6016C111.609 51.888 111.596 53.2031 111.57 55.5469C111.544 57.8646 111.531 60.026 111.531 62.0312C111.531 65.1042 111.557 68.75 111.609 72.9688C111.688 77.1875 111.727 79.5312 111.727 80H105.555C105.555 79.5573 105.581 78.099 105.633 75.625C105.685 73.151 105.711 68.9193 105.711 62.9297C105.711 60.5078 105.698 57.1224 105.672 52.7734C105.646 48.4245 105.607 44.3229 105.555 40.4688H111.609V46.4062L111.648 46.4453C114.591 44.7786 117.495 43.3333 120.359 42.1094C123.224 40.8854 125.516 40.0521 127.234 39.6094L128.406 45.0781ZM162.906 57.7344C162.906 64.1927 162.893 69.4531 162.867 73.5156C162.841 77.5781 162.828 79.7656 162.828 80.0781C162.568 80.1042 161.357 80.1953 159.195 80.3516C157.034 80.5339 154.247 80.625 150.836 80.625C148.701 80.625 146.552 80.4297 144.391 80.0391C142.229 79.6484 140.367 79.0885 138.805 78.3594C136.721 77.3958 135.029 76.0807 133.727 74.4141C132.451 72.7474 131.812 70.7422 131.812 68.3984C131.812 65.9245 132.568 63.7891 134.078 61.9922C135.615 60.1693 137.737 58.6979 140.445 57.5781C142.138 56.875 144.391 56.25 147.203 55.7031C150.042 55.1302 153.271 54.7005 156.891 54.4141C156.734 52.3828 156.227 50.7161 155.367 49.4141C154.508 48.112 153.245 47.1224 151.578 46.4453C150.432 45.9766 149.156 45.651 147.75 45.4688C146.344 45.2604 144.703 45.1562 142.828 45.1562C141.656 45.1562 140.654 45.1823 139.82 45.2344C139.013 45.2865 137.906 45.3516 136.5 45.4297L137.125 40.2344C137.516 40.2083 138.284 40.1693 139.43 40.1172C140.602 40.0391 142.19 40 144.195 40C147.268 40 150.003 40.3255 152.398 40.9766C154.82 41.6016 156.826 42.6302 158.414 44.0625C159.898 45.4167 161.018 47.0964 161.773 49.1016C162.529 51.0807 162.906 53.9583 162.906 57.7344ZM156.93 67.1484C156.93 66.263 156.93 65.1432 156.93 63.7891C156.93 62.4349 156.917 60.8724 156.891 59.1016C155.745 59.1536 153.74 59.388 150.875 59.8047C148.01 60.1953 145.602 60.7682 143.648 61.5234C142.19 62.0703 140.888 62.8906 139.742 63.9844C138.622 65.0781 138.062 66.4323 138.062 68.0469C138.062 69.8177 138.544 71.25 139.508 72.3438C140.471 73.4115 141.786 74.2318 143.453 74.8047C144.729 75.2474 146.135 75.5729 147.672 75.7812C149.234 75.9635 150.875 76.0547 152.594 76.0547C153.115 76.0547 153.753 76.0417 154.508 76.0156C155.263 75.9896 156.057 75.9635 156.891 75.9375C156.891 75.7552 156.891 74.8958 156.891 73.3594C156.917 71.8229 156.93 69.7526 156.93 67.1484ZM211.273 80H205.102C205.128 79.2708 205.154 76.862 205.18 72.7734C205.232 68.6849 205.258 66.1589 205.258 65.1953C205.258 63.8411 205.245 61.849 205.219 59.2188C205.219 56.5625 205.206 54.6224 205.18 53.3984C205.102 50.4036 204.529 48.2552 203.461 46.9531C202.393 45.651 200.544 45 197.914 45C196.326 45 194.359 45.4688 192.016 46.4062C189.672 47.3438 187.302 48.5417 184.906 50C184.906 50.2865 184.893 51.8359 184.867 54.6484C184.841 57.4609 184.828 60.026 184.828 62.3438C184.828 65.3646 184.854 69.0104 184.906 73.2812C184.984 77.5521 185.023 79.7917 185.023 80H178.852C178.852 79.8177 178.878 78.2292 178.93 75.2344C178.982 72.2135 179.008 67.7344 179.008 61.7969C179.008 59.0625 178.995 55.8594 178.969 52.1875C178.969 48.5156 178.93 44.6094 178.852 40.4688H184.945L184.906 44.9609L184.945 45.0391C188.591 42.9557 191.625 41.5104 194.047 40.7031C196.495 39.8698 198.526 39.4531 200.141 39.4531C203.474 39.4531 206.143 40.5078 208.148 42.6172C210.18 44.7005 211.195 47.5651 211.195 51.2109C211.195 54.4922 211.169 57.3307 211.117 59.7266C211.091 62.0964 211.078 64.0234 211.078 65.5078C211.078 67.8776 211.104 70.8464 211.156 74.4141C211.234 77.9557 211.273 79.8177 211.273 80ZM233.508 80H227.336C227.362 79.5312 227.388 76.0156 227.414 69.4531C227.466 62.8906 227.492 56.1719 227.492 49.2969C227.492 46.3542 227.479 42.6432 227.453 38.1641C227.453 33.6849 227.414 28.5417 227.336 22.7344H233.508C233.43 27.3438 233.378 32.6953 233.352 38.7891C233.352 44.8828 233.352 48.5026 233.352 49.6484C233.352 52.3307 233.378 57.9557 233.43 66.5234C233.482 75.0651 233.508 79.5573 233.508 80ZM261.477 79.2188L257.766 82.6172C252.01 76.7578 246.867 71.6536 242.336 67.3047C237.831 62.9557 235.344 60.5599 234.875 60.1172V60.0391C235.5 59.4661 238.234 56.7057 243.078 51.7578C247.922 46.7839 251.841 42.7083 254.836 39.5312L258.625 43.4375C255.526 46.4323 252.271 49.5964 248.859 52.9297C245.474 56.237 243.352 58.3073 242.492 59.1406V59.1797C242.492 59.1797 244.393 61.1849 248.195 65.1953C252.023 69.2057 256.451 73.8802 261.477 79.2188Z" fill="white"/>
</svg>
