<svg viewBox="0 0 679 856" fill="none" xmlns="http://www.w3.org/2000/svg" preserveAspectRatio="none">
<g filter="url(#filter0_f)">
<ellipse cx="482.427" cy="440.724" rx="76.5729" ry="294.99" fill="url(#paint0_linear)"/>
<path d="M533.323 389.507C535.264 534.775 445.372 682.253 332.545 718.907C219.717 755.562 126.679 667.513 124.738 522.244C122.797 376.976 95.4005 162.674 208.228 126.02C321.056 89.3651 531.382 244.238 533.323 389.507Z" fill="url(#paint1_linear)"/>
<ellipse rx="233.648" ry="171.77" transform="matrix(-0.394719 -0.918802 0.968005 0.250932 352.5 514.244)" fill="url(#paint2_linear)"/>
<ellipse rx="242.773" ry="101.057" transform="matrix(0.0404463 -0.999182 0.712687 0.701482 347.629 442.288)" fill="url(#paint3_linear)"/>
</g>
<defs>
<filter id="filter0_f" x="0.441772" y="0.567383" width="678.558" height="855.146" filterUnits="userSpaceOnUse" color-interpolation-filters="sRGB">
<feFlood flood-opacity="0" result="BackgroundImageFix"/>
<feBlend mode="normal" in="SourceGraphic" in2="BackgroundImageFix" result="shape"/>
<feGaussianBlur stdDeviation="60" result="effect1_foregroundBlur"/>
</filter>
<linearGradient id="paint0_linear" x1="405.854" y1="440.724" x2="559" y2="440.724" gradientUnits="userSpaceOnUse">
<stop stop-color="#BB7C8F"/>
<stop offset="0.264056" stop-color="#8672D3"/>
<stop offset="0.515625" stop-color="#686AF9"/>
<stop offset="0.772651" stop-color="#5740FA"/>
<stop offset="1" stop-color="#4611F8"/>
</linearGradient>
<linearGradient id="paint1_linear" x1="121.81" y1="470.732" x2="534.334" y2="465.22" gradientUnits="userSpaceOnUse">
<stop stop-color="#BB7C8F"/>
<stop offset="0.264056" stop-color="#8672D3"/>
<stop offset="0.515625" stop-color="#686AF9"/>
<stop offset="0.772651" stop-color="#5740FA"/>
<stop offset="1" stop-color="#4611F8"/>
</linearGradient>
<linearGradient id="paint2_linear" x1="0" y1="171.77" x2="467.297" y2="171.77" gradientUnits="userSpaceOnUse">
<stop stop-color="#BB7C8F"/>
<stop offset="0.264056" stop-color="#8672D3"/>
<stop offset="0.515625" stop-color="#686AF9"/>
<stop offset="0.772651" stop-color="#5740FA"/>
<stop offset="1" stop-color="#4611F8"/>
</linearGradient>
<linearGradient id="paint3_linear" x1="0" y1="101.057" x2="485.546" y2="101.057" gradientUnits="userSpaceOnUse">
<stop stop-color="#BB7C8F"/>
<stop offset="0.264056" stop-color="#8672D3"/>
<stop offset="0.515625" stop-color="#686AF9"/>
<stop offset="0.772651" stop-color="#5740FA"/>
<stop offset="1" stop-color="#4611F8"/>
</linearGradient>
</defs>
</svg>
