<svg width="43" height="43" viewBox="0 0 43 43" fill="none" xmlns="http://www.w3.org/2000/svg">
<path d="M38.3832 25.2116L42.4568 22.4958C43.1811 22.0432 43.1811 21.0021 42.4568 20.5042L38.3832 17.7884C37.8853 17.4716 37.7042 16.7926 37.9758 16.2495L40.1484 11.8589C40.5105 11.0895 40.0126 10.1842 39.1526 10.1389L34.2642 9.82211C33.6758 9.77684 33.1779 9.32421 33.1326 8.69053L32.8611 3.84737C32.8158 2.98737 31.9105 2.48947 31.1411 2.85158L26.7505 5.02421C26.2074 5.29579 25.5737 5.11474 25.2116 4.61684L22.4958 0.543158C22.0432 -0.181053 21.0021 -0.181053 20.5042 0.543158L17.7884 4.61684C17.4716 5.11474 16.7926 5.29579 16.2495 5.02421L11.8589 2.85158C11.0895 2.48947 10.2295 2.98737 10.1389 3.84737L9.82211 8.73579C9.77684 9.32421 9.32421 9.82211 8.69053 9.86737L3.84737 10.1389C2.98737 10.1842 2.48947 11.0895 2.85158 11.8589L5.02421 16.2495C5.29579 16.7926 5.11474 17.4263 4.61684 17.7884L0.543158 20.5042C-0.181053 20.9568 -0.181053 21.9979 0.543158 22.4958L4.61684 25.2116C5.11474 25.5284 5.29579 26.2074 5.02421 26.7505L2.85158 31.1411C2.48947 31.9105 2.98737 32.7705 3.84737 32.8611L8.73579 33.1779C9.32421 33.2232 9.82211 33.6758 9.86737 34.3095L10.1389 39.1526C10.1842 40.0126 11.0895 40.5105 11.8589 40.1484L16.2495 37.9758C16.7926 37.7042 17.4263 37.8853 17.7884 38.3832L20.5042 42.4568C20.9568 43.1811 21.9979 43.1811 22.4958 42.4568L25.2116 38.3832C25.5284 37.8853 26.2074 37.7042 26.7505 37.9758L31.1411 40.1484C31.9105 40.5105 32.8158 40.0126 32.8611 39.1526L33.1779 34.2642C33.2232 33.6758 33.6758 33.1779 34.3095 33.1326L39.1526 32.8611C40.0126 32.8158 40.5105 31.9105 40.1484 31.1411L37.9758 26.7505C37.7495 26.2074 37.8853 25.5284 38.3832 25.2116ZM24.5326 12.1758C25.7547 12.1758 26.7505 13.1716 26.7505 14.3937C26.7505 15.6158 25.7547 16.6116 24.5326 16.6116C23.3105 16.6116 22.3147 15.6158 22.3147 14.3937C22.3147 13.1716 23.3105 12.1758 24.5326 12.1758ZM30.2358 26.3884C30.0547 26.7505 29.6926 26.9316 29.3305 26.9316H13.6695C13.3074 26.9316 12.9453 26.7053 12.7642 26.3884C12.5832 26.0263 12.6284 25.6189 12.8095 25.3021L18.1505 17.4716C18.5579 16.8832 19.4632 16.8832 19.8705 17.4716L22.8579 21.8621L24.4874 19.5084C24.8947 18.92 25.8 18.92 26.2074 19.5084L30.1905 25.3021C30.4168 25.6189 30.4168 26.0263 30.2358 26.3884Z" fill="#C1C5CB"/>
</svg>
