<svg width="157" height="36" viewBox="0 0 157 36" fill="none" xmlns="http://www.w3.org/2000/svg">
<path d="M15.2834 19.4197L17.2464 11.9883H17.3165L19.2795 19.4197H22.1539L25.0633 8.30769H22.4693L20.6115 15.7741H20.5414L18.5784 8.30769H16.1246L14.1616 15.7741H14.0915L12.1986 8.30769H9.53457L12.444 19.4197H15.2834ZM32.9153 14.8627H37.7527V19.4197H40.4518V8.30769H37.7527V12.6894H32.9153V8.30769H30.2512V19.4197H32.9153V14.8627ZM55.0691 17.2113H49.11V14.8627H53.5969V12.6894H49.11V10.5161H54.8939V8.30769H46.481V19.4197H55.0691V17.2113ZM63.2016 12.3038L68.3544 19.4197H70.4927V8.30769H68.039V14.9679L63.3067 8.30769H60.7478V19.4197H63.2016V12.3038ZM138.251 20.7167L143.404 27.7975H145.542V16.6855H143.089V23.3457L138.356 16.6855H135.797V27.7975H138.251V20.7167ZM130.119 25.6241H124.16V23.2756H128.647V21.1022H124.16V18.9289H129.944V16.7205H121.531V27.8325H130.119V25.6241ZM81.0789 8.41285V0H0V27.5871H78.8004V36H156.023V8.41285H81.0789ZM78.8004 25.3087H2.27848V2.27848H78.7654V25.3087H78.8004ZM153.64 33.7215H81.184V10.6913H153.64V33.7215ZM93.1373 27.7975H95.8014V18.8939H99.7274V16.6855H89.2814V18.8939H93.1373V27.7975ZM107.965 23.2756H112.802V27.8325H115.501V16.6855H112.802V21.0672H107.965V16.6855H105.301V27.7975H107.965V23.2756Z" fill="white"/>
</svg>
