<svg width="16" height="16" viewBox="0 0 16 16" fill="none" xmlns="http://www.w3.org/2000/svg">
    <g>
        <path d="M8.00004 1.33333C6.6815 1.33333 5.39257 1.72432 4.29624 2.45686C3.19991 3.18941 2.34543 4.2306 1.84085 5.44877C1.33626 6.66695 1.20424 8.00739 1.46148 9.3006C1.71871 10.5938 2.35365 11.7817 3.286 12.714C4.21835 13.6464 5.40623 14.2813 6.69944 14.5386C7.99265 14.7958 9.33309 14.6638 10.5513 14.1592C11.7694 13.6546 12.8106 12.8001 13.5432 11.7038C14.2757 10.6075 14.6667 9.31854 14.6667 7.99999C14.6648 6.23247 13.9618 4.53789 12.712 3.28806C11.4621 2.03823 9.76757 1.33524 8.00004 1.33333V1.33333ZM8.00004 11.8889C7.83523 11.8889 7.67411 11.84 7.53707 11.7484C7.40003 11.6569 7.29322 11.5267 7.23014 11.3745C7.16707 11.2222 7.15057 11.0546 7.18272 10.893C7.21488 10.7313 7.29424 10.5828 7.41079 10.4663C7.52733 10.3498 7.67582 10.2704 7.83747 10.2382C7.99912 10.2061 8.16667 10.2226 8.31895 10.2857C8.47122 10.3487 8.60137 10.4555 8.69293 10.5926C8.7845 10.7296 8.83338 10.8907 8.83338 11.0555C8.83338 11.2766 8.74558 11.4885 8.5893 11.6448C8.43302 11.8011 8.22106 11.8889 8.00004 11.8889ZM8.88893 8.51111C8.78982 8.55436 8.70548 8.62561 8.64627 8.7161C8.58706 8.8066 8.55555 8.91241 8.5556 9.02055C8.5556 9.16789 8.49707 9.3092 8.39288 9.41339C8.28869 9.51757 8.14739 9.57611 8.00004 9.57611C7.8527 9.57611 7.71139 9.51757 7.60721 9.41339C7.50302 9.3092 7.44449 9.16789 7.44449 9.02055C7.44444 8.69621 7.53902 8.37891 7.71665 8.10753C7.89428 7.83616 8.14723 7.62251 8.44449 7.49277C8.62811 7.41263 8.78664 7.28434 8.90331 7.12147C9.01998 6.9586 9.09045 6.76721 9.10724 6.56757C9.12404 6.36793 9.08654 6.16746 8.99872 5.98739C8.91091 5.80731 8.77603 5.65433 8.60838 5.54464C8.44073 5.43495 8.24654 5.37263 8.04637 5.36428C7.8462 5.35592 7.64749 5.40185 7.47129 5.49719C7.29508 5.59253 7.14793 5.73374 7.04541 5.90587C6.9429 6.078 6.88883 6.27465 6.88893 6.47499C6.88893 6.62234 6.8304 6.76364 6.72621 6.86783C6.62203 6.97202 6.48072 7.03055 6.33338 7.03055C6.18603 7.03055 6.04473 6.97202 5.94054 6.86783C5.83635 6.76364 5.77782 6.62234 5.77782 6.47499C5.77781 6.07435 5.88612 5.68115 6.09128 5.33702C6.29644 4.99289 6.59082 4.71062 6.94326 4.5201C7.29571 4.32957 7.6931 4.23787 8.0934 4.2547C8.49369 4.27153 8.88198 4.39627 9.21719 4.61571C9.55239 4.83515 9.82204 5.14113 9.99759 5.50127C10.1731 5.86141 10.2481 6.2623 10.2144 6.66154C10.1808 7.06077 10.0398 7.44348 9.8065 7.76917C9.57317 8.09485 9.25613 8.3514 8.88893 8.51166V8.51111Z" fill="#17171D"/>
    </g>
</svg>
