<svg width="24" height="24" viewBox="0 0 24 24" fill="none" xmlns="http://www.w3.org/2000/svg">
    <path d="M13.0707 9.61237C10.7301 8.66574 10.7301 8.18347 10.7301 7.67088C10.7301 7.11971 11.176 6.54374 12.4281 6.54374C13.2683 6.54227 14.0958 6.75713 14.8374 7.16931L15.6422 7.54824C15.7396 7.59402 15.8465 7.6136 15.953 7.60519C16.0595 7.59678 16.1624 7.56065 16.2521 7.50009C16.3418 7.43954 16.4156 7.35649 16.4667 7.25852C16.5178 7.16055 16.5446 7.05077 16.5447 6.9392V3.3566C16.5444 3.22284 16.5068 3.09207 16.4365 2.98025C16.3662 2.86843 16.2663 2.78039 16.1489 2.72689C14.9943 2.2213 13.751 1.97438 12.4994 2.0021C8.73249 2.0021 6 4.49063 6 7.92717C6 12.0733 9.84343 13.4967 11.0744 13.9515C13.2462 14.8168 13.2462 15.4355 13.2462 15.9825C13.2462 17.2667 11.9743 17.4583 11.2156 17.4583C10.1536 17.4465 9.11358 17.1403 8.20209 16.5709L6.64915 15.6325V20.943C8.02714 21.645 9.54126 22.0066 11.0744 21.9999C15.8573 21.9999 18 18.8913 18 15.8089C17.996 12.0761 15.3638 10.537 13.0707 9.61237Z" fill="#17171D"/>
</svg>
