<svg width="719" height="678" viewBox="0 0 719 678" fill="none" xmlns="http://www.w3.org/2000/svg">
<g opacity="0.2">
<g opacity="0.94">
<path opacity="0.3" fill-rule="evenodd" clip-rule="evenodd" d="M555.134 2.93461C553.897 4.87808 551.682 5.96654 549.411 5.74619L542.071 5.03378C538.301 4.6679 535.578 1.29812 535.99 -2.49282C536.105 -3.55844 536.466 -4.58548 537.043 -5.4926L539.809 -9.83857C541.863 -13.0657 546.112 -14.0421 549.3 -12.0195C550.196 -11.4509 550.945 -10.679 551.489 -9.76476L555.253 -3.43238C556.417 -1.47374 556.371 0.99114 555.134 2.93461Z" fill="black"/>
<path opacity="0.3" fill-rule="evenodd" clip-rule="evenodd" d="M546.125 -9.491L546.784 -7.77551C544.997 -7.10762 543.725 -6.16935 542.935 -4.96334C542.145 -3.75734 541.81 -2.24409 541.948 -0.396027L540.063 -0.240666C539.897 -2.46435 540.319 -4.3728 541.345 -5.93843C542.371 -7.50406 543.975 -8.68737 546.125 -9.491Z" fill="black"/>
</g>
<g opacity="0.71">
<path opacity="0.3" fill-rule="evenodd" clip-rule="evenodd" d="M100.374 72.609C101.781 72.4951 103.024 73.5594 103.15 74.9863L98.0545 75.3991C97.9284 73.9722 98.9668 72.723 100.374 72.609Z" fill="black"/>
<path fill-rule="evenodd" clip-rule="evenodd" d="M99.4197 68.9205L99.1841 66.2745C98.9949 64.1494 100.55 62.2889 102.657 62.1189C104.765 61.9489 106.627 63.5338 106.816 65.6589L106.873 66.3002L105.601 66.4028L105.544 65.7615C105.418 64.3448 104.177 63.2882 102.772 63.4015C101.367 63.5148 100.33 64.7552 100.456 66.1719L100.692 68.8179C101.814 69.0142 102.714 69.9531 102.821 71.1484C102.947 72.5651 101.91 73.8055 100.505 73.9188C99.1004 74.0321 97.8592 72.9755 97.733 71.5588C97.6266 70.3635 98.3479 69.2938 99.4197 68.9205ZM100.391 72.6362C101.094 72.5795 101.612 71.9593 101.549 71.251C101.486 70.5426 100.865 70.0143 100.163 70.071C99.4602 70.1276 98.9419 70.7478 99.005 71.4562C99.068 72.1645 99.6886 72.6928 100.391 72.6362Z" fill="black"/>
<path opacity="0.3" fill-rule="evenodd" clip-rule="evenodd" d="M106.699 71.44C107.401 71.3834 107.919 70.7633 107.856 70.0549C107.814 69.5826 107.333 68.9755 106.414 68.2334C105.638 69.1122 105.271 69.7876 105.313 70.2599C105.376 70.9683 105.997 71.4966 106.699 71.44Z" fill="black"/>
</g>
<g opacity="0.75">
<path opacity="0.3" fill-rule="evenodd" clip-rule="evenodd" d="M175.39 154.261L177.488 150.142C177.676 149.774 178.118 149.625 178.476 149.809C178.834 149.994 178.972 150.442 178.785 150.81L176.686 154.93C176.498 155.298 176.056 155.447 175.698 155.263C175.34 155.078 175.202 154.63 175.39 154.261ZM183.182 155.876C183.198 156.287 182.884 156.64 182.48 156.665C182.077 156.689 181.736 156.376 181.72 155.964L181.57 152.215C181.554 151.804 181.868 151.45 182.271 151.426C182.675 151.402 183.016 151.715 183.032 152.127L183.182 155.876Z" fill="black"/>
<path fill-rule="evenodd" clip-rule="evenodd" d="M179.298 139.632L185.931 141.015C186.72 141.18 187.216 141.964 187.039 142.766C187.021 142.846 186.997 142.925 186.967 143.001L184.377 149.493C184.31 149.662 184.132 149.759 183.958 149.723L177.415 148.358C177.24 148.322 177.12 148.163 177.13 147.981L177.514 141.03C177.559 140.211 178.251 139.572 179.059 139.603C179.14 139.606 179.22 139.615 179.298 139.632ZM175.879 148.798L185.172 150.736C185.764 150.86 186.136 151.447 186.003 152.049C185.87 152.651 185.282 153.039 184.69 152.915L175.397 150.977C174.805 150.854 174.433 150.266 174.566 149.664C174.699 149.062 175.287 148.675 175.879 148.798Z" fill="black"/>
</g>
<g opacity="0.74">
<path opacity="0.3" d="M521.362 148.649L520.873 150.224C518.621 149.612 518.158 147.574 518.833 145.399L520.299 140.672C520.974 138.497 522.532 137.007 524.784 137.619L524.295 139.195C522.944 138.828 522.336 139.81 521.931 141.115L520.464 145.842C520.059 147.147 520.011 148.282 521.362 148.649Z" fill="black"/>
<path opacity="0.3" fill-rule="evenodd" clip-rule="evenodd" d="M516.059 132.278L515.613 133.722C515.343 134.595 515.846 135.503 516.735 135.751L518.346 136.199C518.79 136.323 519.042 136.777 518.907 137.214L515.903 146.94C515.768 147.377 515.298 147.631 514.853 147.507L513.243 147.059C512.353 146.811 511.413 147.319 511.144 148.192L510.687 149.67C509.353 149.299 508.599 147.936 509.004 146.626L512.91 133.977C513.315 132.668 514.725 131.907 516.059 132.278Z" fill="black"/>
<path fill-rule="evenodd" clip-rule="evenodd" d="M517.542 132.873L521.569 133.993C522.903 134.364 523.657 135.727 523.252 137.037L519.346 149.686C518.941 150.995 517.531 151.756 516.197 151.385L512.171 150.265L512.627 148.787L514.238 149.235C515.572 149.606 516.982 148.845 517.386 147.535L520.39 137.808C520.795 136.499 520.041 135.136 518.707 134.765L517.096 134.317L517.542 132.873Z" fill="black"/>
</g>
<g opacity="0.88">
<path opacity="0.3" d="M401.335 284.16C399.583 285.842 399.528 288.628 401.212 290.382C402.896 292.136 405.682 292.195 407.434 290.513C409.186 288.831 409.241 286.045 407.557 284.291C405.873 282.537 403.087 282.479 401.335 284.16Z" fill="black"/>
<path opacity="0.3" d="M405.133 280.493C403.381 282.175 403.326 284.96 405.01 286.715C406.695 288.469 409.48 288.527 411.232 286.845C412.984 285.163 413.039 282.378 411.355 280.624C409.671 278.87 406.885 278.811 405.133 280.493Z" fill="black"/>
<path opacity="0.3" d="M410.067 283.068C408.315 284.75 408.26 287.536 409.944 289.29C411.628 291.044 414.414 291.102 416.166 289.42C417.918 287.738 417.973 284.953 416.289 283.199C414.604 281.445 411.819 281.386 410.067 283.068Z" fill="black"/>
<path opacity="0.3" d="M403.737 289.181C401.985 290.863 401.93 293.649 403.614 295.403C405.298 297.157 408.084 297.216 409.836 295.534C411.588 293.852 411.643 291.066 409.958 289.312C408.274 287.558 405.489 287.5 403.737 289.181Z" fill="black"/>
<path opacity="0.3" d="M409.347 288.657C407.595 290.339 407.54 293.125 409.224 294.879C410.908 296.633 413.694 296.691 415.446 295.009C417.198 293.327 417.253 290.542 415.569 288.788C413.885 287.034 411.099 286.975 409.347 288.657Z" fill="black"/>
</g>
<g opacity="0.71">
<path opacity="0.3" fill-rule="evenodd" clip-rule="evenodd" d="M698.899 238.752C700.431 236.873 702.886 236.016 705.241 236.537L712.854 238.222C716.765 239.088 719.215 242.968 718.326 246.889C718.077 247.992 717.574 249.022 716.86 249.899L713.434 254.101C710.891 257.221 706.316 257.701 703.216 255.173C702.345 254.463 701.651 253.558 701.192 252.53L698.007 245.411C697.022 243.209 697.367 240.631 698.899 238.752Z" fill="black"/>
<path opacity="0.3" fill-rule="evenodd" clip-rule="evenodd" d="M706.908 252.926L706.436 251.03C708.379 250.549 709.819 249.717 710.792 248.541C711.765 247.366 712.301 245.809 712.388 243.838L714.369 243.911C714.265 246.282 713.588 248.246 712.325 249.772C711.063 251.298 709.246 252.347 706.908 252.926Z" fill="black"/>
</g>
<g opacity="0.96">
<path opacity="0.3" fill-rule="evenodd" clip-rule="evenodd" d="M476.69 308.938C476.58 309.579 475.984 310.017 475.358 309.916L467.423 308.632L467.819 306.309C468.693 301.175 473.462 297.671 478.47 298.481L476.69 308.938ZM456.286 305.636L458.066 295.18C463.074 295.99 466.426 300.808 465.552 305.942L465.156 308.266L457.221 306.982C456.595 306.88 456.176 306.278 456.286 305.636Z" fill="black"/>
<path fill-rule="evenodd" clip-rule="evenodd" d="M478.934 289.246C479.56 289.347 479.979 289.953 479.87 290.598L478.491 298.774C474.734 298.164 472.218 294.533 472.871 290.662L473.265 288.326L478.934 289.246ZM460.795 286.303L466.463 287.223L466.069 289.559C465.416 293.429 461.841 296.073 458.084 295.463L459.464 287.287C459.573 286.642 460.169 286.201 460.795 286.303Z" fill="black"/>
</g>
<g opacity="0.88">
<path opacity="0.3" d="M435.332 423.773L429.822 432.534C429.518 433.017 429.672 433.644 430.165 433.934L431.953 434.983C432.447 435.272 433.094 435.115 433.398 434.631L438.908 425.87C439.212 425.387 439.058 424.76 438.565 424.47L436.777 423.421C436.283 423.132 435.636 423.289 435.332 423.773Z" fill="black"/>
<path fill-rule="evenodd" clip-rule="evenodd" d="M446.07 429.527C446.576 429.724 447.076 429.971 447.562 430.269C451.197 432.495 452.686 436.704 450.888 439.671C449.09 442.638 444.685 443.239 441.05 441.013C440.564 440.716 440.117 440.382 439.71 440.022L435.552 436.688C434.742 436.038 434.544 434.873 435.092 433.97L438.602 428.178C439.149 427.275 440.27 426.917 441.216 427.342L446.07 429.527ZM449.133 438.596C450.332 436.619 449.339 433.812 446.915 432.328C444.492 430.845 441.556 431.245 440.357 433.223C439.158 435.201 440.151 438.007 442.574 439.491C444.998 440.975 447.934 440.574 449.133 438.596Z" fill="black"/>
<path opacity="0.3" fill-rule="evenodd" clip-rule="evenodd" d="M443.298 436.303L444.387 434.522C444.537 434.276 444.856 434.197 445.099 434.344L445.98 434.878C446.709 435.321 446.935 436.278 446.484 437.016C446.033 437.753 445.076 437.993 444.347 437.55L443.466 437.016C443.223 436.868 443.148 436.549 443.298 436.303Z" fill="black"/>
</g>
<g opacity="0.74">
<path fill-rule="evenodd" clip-rule="evenodd" d="M728.12 433.244L714.702 436.27C713.813 436.471 712.918 435.898 712.703 434.992C712.488 434.086 713.035 433.188 713.924 432.988L727.342 429.962L724.62 418.475C724.405 417.568 724.952 416.671 725.841 416.47C726.73 416.27 727.625 416.842 727.84 417.748L730.563 429.236L732.173 428.873C733.062 428.672 733.957 429.245 734.172 430.151C734.387 431.057 733.84 431.955 732.951 432.155L731.341 432.518L731.73 434.159C731.944 435.066 731.398 435.963 730.508 436.163C729.619 436.364 728.724 435.792 728.509 434.885L728.12 433.244Z" fill="black"/>
<path opacity="0.3" fill-rule="evenodd" clip-rule="evenodd" d="M724.671 428.454L713.413 431.012C712.525 431.213 711.631 430.637 711.417 429.725L710.77 426.972C710.198 424.54 711.655 422.132 714.023 421.594L720.993 420.01C721.881 419.809 722.775 420.384 722.989 421.297L724.671 428.454ZM713.691 429.789C714.283 429.654 714.647 429.052 714.504 428.444L713.728 425.141C713.585 424.532 712.989 424.148 712.397 424.283C711.804 424.418 711.44 425.02 711.583 425.628L712.36 428.931C712.503 429.539 713.099 429.923 713.691 429.789Z" fill="black"/>
</g>
<g opacity="0.97">
<path opacity="0.3" fill-rule="evenodd" clip-rule="evenodd" d="M278.494 549.249C286.025 540.022 292.967 537.437 299.32 541.494C296.789 548.596 289.847 551.181 278.494 549.249Z" fill="black"/>
<path opacity="0.3" fill-rule="evenodd" clip-rule="evenodd" d="M282.666 527.322C286.375 538.548 291.936 543.356 299.347 541.748C299.547 534.231 293.987 529.423 282.666 527.322Z" fill="black"/>
<path opacity="0.3" fill-rule="evenodd" clip-rule="evenodd" d="M277.677 537.734C286.428 545.547 293.646 546.839 299.331 541.611C295.817 534.991 288.599 533.699 277.677 537.734Z" fill="black"/>
</g>
<g opacity="0.77">
<path opacity="0.3" d="M464.59 566.791C464.865 566.622 465.21 566.562 465.553 566.663L472.226 568.622C472.434 568.683 472.621 568.799 472.767 568.957L479.24 575.949C479.387 576.108 479.488 576.303 479.532 576.513L480.95 583.294C481.023 583.643 480.935 583.981 480.743 584.24L477.179 589.124C476.792 589.654 476.047 589.77 475.514 589.384C474.981 588.998 474.862 588.255 475.248 587.725L477.51 584.626L472.997 584.437C472.339 584.41 471.826 583.857 471.852 583.201C471.878 582.546 472.433 582.038 473.091 582.065L478.304 582.283L477.265 577.314L471.24 570.807L466.35 569.371L466.144 574.561C466.118 575.216 465.563 575.725 464.905 575.698C464.247 575.67 463.735 575.117 463.761 574.462L463.939 569.968L460.653 571.96C460.091 572.3 459.357 572.122 459.014 571.562C458.67 571.001 458.848 570.271 459.409 569.93L464.59 566.791ZM470.814 572.281C470.998 572.911 470.634 573.568 470.001 573.749C469.369 573.931 468.707 573.566 468.524 572.936L467.41 569.109C467.148 568.209 467.987 567.377 468.89 567.643L472.226 568.622C472.434 568.683 472.621 568.799 472.767 568.957L479.24 575.949C479.387 576.108 479.488 576.303 479.532 576.513L480.241 579.904C480.425 580.782 479.603 581.535 478.739 581.282L475.403 580.302C474.771 580.116 474.408 579.456 474.593 578.827C474.778 578.198 475.44 577.839 476.072 578.025L477.501 578.444L477.265 577.314L471.24 570.807L470.305 570.532L470.814 572.281Z" fill="black"/>
<path fill-rule="evenodd" clip-rule="evenodd" d="M475.949 575.889L472.487 572.127C471.595 571.158 471.655 569.651 472.62 568.76C472.823 568.572 473.058 568.421 473.314 568.314L481.924 564.718C482.582 564.443 483.343 564.611 483.828 565.137C484.312 565.664 484.417 566.437 484.09 567.072L479.811 575.374C479.208 576.542 477.774 576.998 476.606 576.392C476.36 576.264 476.137 576.094 475.949 575.889Z" fill="black"/>
</g>
</g>
</svg>
