<svg width="24" height="24" viewBox="0 0 24 24" fill="none" xmlns="http://www.w3.org/2000/svg">
    <g opacity="0.3">
        <path d="M21 4H3C2.44772 4 2 4.44772 2 5V8C2 8.55228 2.44772 9 3 9H21C21.5523 9 22 8.55228 22 8V5C22 4.44772 21.5523 4 21 4Z" fill="#19135E"/>
        <path d="M21 4H3C2.44772 4 2 4.44772 2 5V8C2 8.55228 2.44772 9 3 9H21C21.5523 9 22 8.55228 22 8V5C22 4.44772 21.5523 4 21 4Z" fill="#0F1A7D"/>
        <path d="M21 4H3C2.44772 4 2 4.44772 2 5V8C2 8.55228 2.44772 9 3 9H21C21.5523 9 22 8.55228 22 8V5C22 4.44772 21.5523 4 21 4Z" fill="#2346F2"/>
    </g>
    <path fill-rule="evenodd" clip-rule="evenodd" d="M5 7H8V21H7C5.89543 21 5 20.1046 5 19V7ZM19 7V19C19 20.1046 18.1046 21 17 21H11V7H19Z" fill="#19135E"/>
    <path fill-rule="evenodd" clip-rule="evenodd" d="M5 7H8V21H7C5.89543 21 5 20.1046 5 19V7ZM19 7V19C19 20.1046 18.1046 21 17 21H11V7H19Z" fill="#0F1A7D"/>
    <path fill-rule="evenodd" clip-rule="evenodd" d="M5 7H8V21H7C5.89543 21 5 20.1046 5 19V7ZM19 7V19C19 20.1046 18.1046 21 17 21H11V7H19Z" fill="#2346F2"/>
</svg>
