<?xml version="1.0" encoding="iso-8859-1"?>
<!-- Generator: Adobe Illustrator 19.0.0, SVG Export Plug-In . SVG Version: 6.00 Build 0)  -->
<svg width="31" height="10" viewBox="0 0 31 10" fill="none" xmlns="http://www.w3.org/2000/svg">
	<g clip-path="url(#clip0)">
		<path d="M30.9473 9.531C30.1947 9.531 29.4365 9.531 28.6727 9.531C28.5891 9.13712 28.4999 8.75418 28.4274 8.36578C28.3996 8.20713 28.3438 8.14148 28.1654 8.14695C27.2511 8.15789 26.3424 8.15789 25.4281 8.14695C25.2887 8.14695 25.233 8.19072 25.194 8.31654C25.0657 8.68307 24.932 9.04959 24.7926 9.41612C24.7759 9.46536 24.709 9.531 24.6644 9.531C23.8448 9.53647 23.0198 9.53647 22.1724 9.53647C22.3285 9.16995 22.4734 8.8253 22.6184 8.47519C23.6776 5.99155 24.7368 3.51339 25.8016 1.02976C26.0358 0.493641 26.3814 0.269348 26.9724 0.269348C27.6302 0.269348 28.2936 0.269348 28.9682 0.269348C29.0351 0.570229 29.102 0.87111 29.1633 1.16652C29.6874 3.61733 30.2058 6.07361 30.7299 8.52442C30.7968 8.83624 30.8748 9.14807 30.9473 9.46536C30.9473 9.48724 30.9473 9.50912 30.9473 9.531ZM27.9703 6.23773C27.7306 5.09985 27.4908 3.97292 27.2511 2.84598C27.24 2.84598 27.2288 2.84051 27.2232 2.84051C26.8051 3.96745 26.3926 5.09438 25.9689 6.23773C26.649 6.23773 27.3013 6.23773 27.9703 6.23773Z" fill="white"/>
		<path d="M21.0408 0.105286C21.3419 0.159991 21.6429 0.203756 21.9384 0.274873C22.2116 0.335049 22.4736 0.422578 22.7635 0.504636C22.6185 1.17204 22.4792 1.82304 22.3398 2.45763C21.9607 2.34821 21.5983 2.22239 21.2248 2.14033C20.7119 2.03092 20.1879 1.98716 19.6806 2.12939C19.4743 2.1841 19.2624 2.29351 19.1008 2.43027C18.822 2.66551 18.8164 3.00468 19.084 3.25086C19.268 3.42044 19.4854 3.56268 19.7084 3.6885C20.2046 3.98391 20.7286 4.23556 21.2137 4.55285C21.7823 4.92485 22.2004 5.42814 22.2841 6.11743C22.4402 7.33189 21.983 8.28924 20.9405 8.96759C20.2882 9.39429 19.5468 9.58576 18.7774 9.65141C17.7015 9.74988 16.6478 9.62953 15.6164 9.30129C15.5495 9.27941 15.4826 9.25206 15.4157 9.22471C15.3934 9.21923 15.3767 9.20282 15.3488 9.18094C15.4938 8.51353 15.6387 7.84612 15.7893 7.15683C15.9621 7.23342 16.1293 7.30454 16.2966 7.37566C17.0994 7.69295 17.93 7.84065 18.7886 7.68201C19.0116 7.63824 19.2401 7.54524 19.4297 7.41942C19.8422 7.15136 19.8813 6.6426 19.5077 6.31984C19.2624 6.11196 18.967 5.95878 18.6827 5.7892C18.2422 5.52661 17.7795 5.30232 17.3614 5.01238C16.8318 4.63491 16.4471 4.13709 16.3691 3.46968C16.2576 2.47404 16.6367 1.66439 17.4171 1.03528C18.0973 0.488225 18.9001 0.24205 19.7586 0.14358C19.8088 0.138109 19.8534 0.121697 19.898 0.110756C20.2771 0.105286 20.6618 0.105286 21.0408 0.105286Z" fill="white"/>
		<path d="M12.1989 0.280368C12.0707 0.581249 11.948 0.871189 11.8254 1.15566C10.6546 3.89641 9.48391 6.63716 8.31875 9.37791C8.263 9.5092 8.1961 9.54202 8.0623 9.54202C7.32083 9.53655 6.58494 9.53108 5.84348 9.54202C5.68738 9.54202 5.63721 9.49279 5.59818 9.35055C4.97379 6.95445 4.33267 4.56382 3.71386 2.16771C3.60236 1.73007 3.37379 1.42919 2.94452 1.24319C2.2588 0.947776 1.55079 0.739895 0.826046 0.570308C0.798171 0.564837 0.764722 0.553896 0.736847 0.548426C0.742422 0.269427 0.742422 0.269427 1.01002 0.269427C2.3034 0.269427 3.59678 0.269427 4.89017 0.269427C5.50341 0.269427 5.94383 0.619543 6.0609 1.21583C6.38982 2.90077 6.70759 4.59117 7.03651 6.2761C7.05324 6.34722 7.06439 6.4238 7.08669 6.52775C7.12014 6.46757 7.14244 6.42928 7.15916 6.39098C7.96195 4.3997 8.76474 2.40842 9.56195 0.411662C9.60655 0.302251 9.65673 0.263957 9.77938 0.269427C10.532 0.274898 11.279 0.269427 12.0316 0.269427C12.0818 0.269427 12.1264 0.274898 12.1989 0.280368Z" fill="white"/>
		<path d="M11.2178 9.53646C11.8924 6.44012 12.5614 3.36567 13.2359 0.280273C14.0554 0.280273 14.8638 0.280273 15.6833 0.280273C15.583 0.750741 15.4826 1.21027 15.3823 1.66979C14.8248 4.21907 14.2729 6.76288 13.7209 9.31216C13.6819 9.48722 13.6206 9.5474 13.431 9.54193C12.7621 9.53098 12.0875 9.53646 11.4185 9.53646C11.3572 9.53646 11.2959 9.53646 11.2178 9.53646Z" fill="white"/>
	</g>
	<defs>
		<clipPath id="clip0">
			<rect width="30.2105" height="9.57895" fill="white" transform="translate(0.736847 0.105286)"/>
		</clipPath>
	</defs>
</svg>
