<svg width="24" height="24" viewBox="0 0 24 24" fill="none" xmlns="http://www.w3.org/2000/svg">
<path d="M12.75 9.38003V4.12003C12.75 3.62407 12.947 3.14843 13.2977 2.79774C13.6484 2.44704 14.1241 2.25003 14.62 2.25003C14.8664 2.24871 15.1107 2.29611 15.3387 2.38949C15.5668 2.48288 15.7741 2.62041 15.9488 2.79419C16.1235 2.96797 16.2621 3.17456 16.3567 3.40209C16.4513 3.62962 16.5 3.87361 16.5 4.12003V9.38003C16.5 9.6256 16.4517 9.86877 16.3577 10.0956C16.2637 10.3225 16.126 10.5287 15.9523 10.7023C15.7787 10.876 15.5725 11.0137 15.3456 11.1077C15.1188 11.2017 14.8756 11.25 14.63 11.25C14.3836 11.2513 14.1394 11.2039 13.9113 11.1106C13.6833 11.0172 13.476 10.8796 13.3013 10.7059C13.1266 10.5321 12.9879 10.3255 12.8933 10.098C12.7987 9.87043 12.75 9.62644 12.75 9.38003ZM19.88 12.75H14.62C14.1241 12.75 13.6484 12.947 13.2977 13.2977C12.947 13.6484 12.75 14.1241 12.75 14.62C12.75 14.8656 12.7984 15.1088 12.8924 15.3356C12.9863 15.5625 13.1241 15.7687 13.2977 15.9423C13.4714 16.116 13.6775 16.2537 13.9044 16.3477C14.1313 16.4417 14.3745 16.49 14.62 16.49H19.88C20.1256 16.49 20.3688 16.4417 20.5956 16.3477C20.8225 16.2537 21.0287 16.116 21.2023 15.9423C21.376 15.7687 21.5137 15.5625 21.6077 15.3356C21.7017 15.1088 21.75 14.8656 21.75 14.62C21.75 14.1241 21.553 13.6484 21.2023 13.2977C20.8516 12.947 20.376 12.75 19.88 12.75ZM9.38003 12.75C9.13361 12.7487 8.88937 12.7961 8.66134 12.8895C8.4333 12.9829 8.22597 13.1204 8.05127 13.2942C7.87656 13.468 7.73792 13.6746 7.64332 13.9021C7.54872 14.1296 7.50002 14.3736 7.50003 14.62V19.88C7.50003 20.1256 7.5484 20.3688 7.64237 20.5956C7.73635 20.8225 7.87409 21.0287 8.04774 21.2023C8.22138 21.376 8.42753 21.5137 8.65441 21.6077C8.88129 21.7017 9.12445 21.75 9.37003 21.75C9.86598 21.75 10.3416 21.553 10.6923 21.2023C11.043 20.8516 11.24 20.376 11.24 19.88V14.62C11.24 14.1258 11.0444 13.6517 10.6959 13.3013C10.3473 12.9509 9.87425 12.7527 9.38003 12.75ZM9.38003 7.50003H4.12003C3.62407 7.50003 3.14843 7.69704 2.79774 8.04774C2.44704 8.39843 2.25003 8.87407 2.25003 9.37003C2.25003 9.86598 2.44704 10.3416 2.79774 10.6923C3.14843 11.043 3.62407 11.24 4.12003 11.24H9.38003C9.87598 11.24 10.3516 11.043 10.7023 10.6923C11.053 10.3416 11.25 9.86598 11.25 9.37003C11.25 8.87407 11.053 8.39843 10.7023 8.04774C10.3516 7.69704 9.87598 7.50003 9.38003 7.50003ZM9.38003 2.25003C9.13361 2.24871 8.88937 2.29611 8.66134 2.38949C8.4333 2.48288 8.22597 2.62041 8.05127 2.79419C7.87656 2.96797 7.73792 3.17456 7.64332 3.40209C7.54872 3.62962 7.50002 3.87361 7.50003 4.12003C7.49871 4.36644 7.54611 4.61068 7.63949 4.83872C7.73288 5.06675 7.87041 5.27408 8.04419 5.44879C8.21797 5.62349 8.42456 5.76213 8.65209 5.85673C8.87962 5.95133 9.12361 6.00003 9.37003 6.00003H10.75C10.8826 6.00003 11.0098 5.94735 11.1036 5.85358C11.1973 5.75981 11.25 5.63263 11.25 5.50003V4.12003C11.25 3.62407 11.053 3.14843 10.7023 2.79774C10.3516 2.44704 9.87598 2.25003 9.38003 2.25003ZM19.88 7.50003C19.6336 7.49871 19.3894 7.54611 19.1613 7.63949C18.9333 7.73288 18.726 7.87041 18.5513 8.04419C18.3766 8.21797 18.2379 8.42456 18.1433 8.65209C18.0487 8.87962 18 9.12361 18 9.37003V10.75C18 10.8826 18.0527 11.0098 18.1465 11.1036C18.2402 11.1973 18.3674 11.25 18.5 11.25H19.88C20.376 11.25 20.8516 11.053 21.2023 10.7023C21.553 10.3516 21.75 9.87598 21.75 9.38003C21.7513 9.13361 21.7039 8.88937 21.6106 8.66134C21.5172 8.4333 21.3796 8.22597 21.2059 8.05127C21.0321 7.87656 20.8255 7.73792 20.598 7.64332C20.3704 7.54872 20.1264 7.50002 19.88 7.50003ZM14.63 18H13.25C13.1174 18 12.9902 18.0527 12.8965 18.1465C12.8027 18.2402 12.75 18.3674 12.75 18.5V19.88C12.75 20.376 12.947 20.8516 13.2977 21.2023C13.6484 21.553 14.1241 21.75 14.62 21.75C14.8656 21.75 15.1088 21.7017 15.3356 21.6077C15.5625 21.5137 15.7687 21.376 15.9423 21.2023C16.116 21.0287 16.2537 20.8225 16.3477 20.5956C16.4417 20.3688 16.49 20.1256 16.49 19.88C16.4913 19.6345 16.4443 19.391 16.3515 19.1636C16.2588 18.9363 16.1221 18.7294 15.9494 18.5548C15.7767 18.3802 15.5713 18.2414 15.3449 18.1462C15.1185 18.051 14.8756 18.0013 14.63 18ZM5.50003 12.75H4.12003C3.62407 12.75 3.14843 12.947 2.79774 13.2977C2.44704 13.6484 2.25003 14.1241 2.25003 14.62C2.24871 14.8664 2.29611 15.1107 2.38949 15.3387C2.48288 15.5668 2.62041 15.7741 2.79419 15.9488C2.96797 16.1235 3.17456 16.2621 3.40209 16.3567C3.62962 16.4513 3.87361 16.5 4.12003 16.5C4.36644 16.5013 4.61068 16.4539 4.83872 16.3606C5.06675 16.2672 5.27408 16.1296 5.44879 15.9559C5.62349 15.7821 5.76213 15.5755 5.85673 15.348C5.95133 15.1204 6.00003 14.8764 6.00003 14.63V13.25C6.00003 13.1174 5.94735 12.9902 5.85358 12.8965C5.75981 12.8027 5.63263 12.75 5.50003 12.75Z" fill="white"/>
</svg>
